<?xml version="1.0" encoding="UTF-8" standalone="no"?><!DOCTYPE svg PUBLIC "-//W3C//DTD SVG 1.1//EN" "http://www.w3.org/Graphics/SVG/1.1/DTD/svg11.dtd"><svg width="100%" height="100%" viewBox="0 0 113 113" version="1.1" xmlns="http://www.w3.org/2000/svg" xmlns:xlink="http://www.w3.org/1999/xlink" xml:space="preserve" xmlns:serif="http://www.serif.com/" style="fill-rule:evenodd;clip-rule:evenodd;stroke-linejoin:round;stroke-miterlimit:2;"><path d="M35.381,72.446l-6.576,22.525c-0.412,0.877 -0.165,1.923 0.596,2.524c0.761,0.601 1.836,0.597 2.593,-0.008l20.916,-25.041l42.633,0c0.998,0 1.808,-0.809 1.808,-1.807l-0,-46.061c-0,-0.998 -0.81,-1.807 -1.808,-1.807l-78.586,-0c-0.998,-0 -1.808,0.809 -1.808,1.807l0,46.061c0,0.998 0.81,1.807 1.808,1.807l18.424,0Z" style="fill:#fff;"/><path d="M65.393,58.967c0,-1.5 -1.217,-2.717 -2.716,-2.717l-12.854,0c-1.499,0 -2.716,1.217 -2.716,2.717l-0,5.433c-0,1.499 1.217,2.717 2.716,2.717l12.854,-0c1.499,-0 2.716,-1.218 2.716,-2.717l0,-5.433Z" style="fill:#2a2a31;"/><path d="M37.916,30.252c-0,-1.478 -1.2,-2.677 -2.677,-2.677l-5.354,-0c-1.477,-0 -2.677,1.199 -2.677,2.677l0,20.388c0,1.477 1.2,2.676 2.677,2.676l5.354,0c1.477,0 2.677,-1.199 2.677,-2.676l-0,-20.388Z" style="fill:#2a2a31;"/><path d="M87.712,30.252c-0,-1.478 -1.2,-2.677 -2.677,-2.677l-5.354,-0c-1.477,-0 -2.676,1.199 -2.676,2.677l-0,20.388c-0,1.477 1.199,2.676 2.676,2.676l5.354,0c1.477,0 2.677,-1.199 2.677,-2.676l-0,-20.388Z" style="fill:#2a2a31;"/></svg>